# xmcd CD database file
#
# Track frame offsets:
#	150
#	16580
#	36287
#
# Disc length: 754 seconds
#
# Revision: 2
# Processed by: cddbd v1.5.2PL0 Copyright (c) Steve Scherf et al.
# Submitted via: CDex 1.51
#
DISCID=1602f003
DTITLE=QUEEN - Another One Bites The Dust
DYEAR=1980
DGENRE=Rock
TTITLE0=Another One Bites The Dust
TTITLE1=Dragon Attack
TTITLE2=Las Palabras De Amor
EXTD=YEAR: 1980
EXTT0=
EXTT1=
EXTT2=
PLAYORDER=
